<svg width="24" height="24" viewBox="0 0 24 24" fill="none" xmlns="http://www.w3.org/2000/svg">
<path d="M9.47188 15.2799C9.28188 15.2799 9.09187 15.2099 8.94187 15.0599C8.12187 14.2399 7.67188 13.1499 7.67188 11.9999C7.67188 9.60992 9.61187 7.66992 12.0019 7.66992C13.1519 7.66992 14.2419 8.11992 15.0619 8.93992C15.2019 9.07992 15.2819 9.26992 15.2819 9.46992C15.2819 9.66992 15.2019 9.85992 15.0619 9.99992L10.0019 15.0599C9.85187 15.2099 9.66188 15.2799 9.47188 15.2799ZM12.0019 9.16992C10.4419 9.16992 9.17188 10.4399 9.17188 11.9999C9.17188 12.4999 9.30187 12.9799 9.54187 13.3999L13.4019 9.53992C12.9819 9.29992 12.5019 9.16992 12.0019 9.16992Z" fill="#103958"/>
<path d="M5.59984 18.5105C5.42984 18.5105 5.24984 18.4505 5.10984 18.3305C4.03984 17.4205 3.07984 16.3005 2.25984 15.0005C1.19984 13.3505 1.19984 10.6605 2.25984 9.00047C4.69984 5.18047 8.24984 2.98047 11.9998 2.98047C14.1998 2.98047 16.3698 3.74047 18.2698 5.17047C18.5998 5.42047 18.6698 5.89047 18.4198 6.22047C18.1698 6.55047 17.6998 6.62047 17.3698 6.37047C15.7298 5.13047 13.8698 4.48047 11.9998 4.48047C8.76984 4.48047 5.67984 6.42047 3.51984 9.81047C2.76984 10.9805 2.76984 13.0205 3.51984 14.1905C4.26984 15.3605 5.12984 16.3705 6.07984 17.1905C6.38984 17.4605 6.42984 17.9305 6.15984 18.2505C6.01984 18.4205 5.80984 18.5105 5.59984 18.5105Z" fill="#103958"/>
<path d="M11.9986 21.0205C10.6686 21.0205 9.3686 20.7505 8.1186 20.2205C7.7386 20.0605 7.5586 19.6205 7.7186 19.2405C7.8786 18.8605 8.3186 18.6805 8.6986 18.8405C9.7586 19.2905 10.8686 19.5205 11.9886 19.5205C15.2186 19.5205 18.3086 17.5805 20.4686 14.1905C21.2186 13.0205 21.2186 10.9805 20.4686 9.81049C20.1586 9.32049 19.8186 8.85049 19.4586 8.41049C19.1986 8.09049 19.2486 7.62049 19.5686 7.35049C19.8886 7.09049 20.3586 7.13049 20.6286 7.46049C21.0186 7.94049 21.3986 8.46049 21.7386 9.00049C22.7986 10.6505 22.7986 13.3405 21.7386 15.0005C19.2986 18.8205 15.7486 21.0205 11.9986 21.0205Z" fill="#103958"/>
<path d="M12.6915 16.2703C12.3415 16.2703 12.0215 16.0203 11.9515 15.6603C11.8715 15.2503 12.1415 14.8603 12.5515 14.7903C13.6515 14.5903 14.5715 13.6703 14.7715 12.5703C14.8515 12.1603 15.2415 11.9003 15.6515 11.9703C16.0615 12.0503 16.3315 12.4403 16.2515 12.8503C15.9315 14.5803 14.5515 15.9503 12.8315 16.2703C12.7815 16.2603 12.7415 16.2703 12.6915 16.2703Z" fill="#103958"/>
<path d="M2.00141 22.7497C1.81141 22.7497 1.62141 22.6797 1.47141 22.5297C1.18141 22.2397 1.18141 21.7597 1.47141 21.4697L8.94141 13.9997C9.23141 13.7097 9.71141 13.7097 10.0014 13.9997C10.2914 14.2897 10.2914 14.7697 10.0014 15.0597L2.53141 22.5297C2.38141 22.6797 2.19141 22.7497 2.00141 22.7497Z" fill="#103958"/>
<path d="M14.5287 10.2204C14.3387 10.2204 14.1488 10.1504 13.9988 10.0004C13.7088 9.71043 13.7088 9.23043 13.9988 8.94043L21.4687 1.47043C21.7587 1.18043 22.2388 1.18043 22.5288 1.47043C22.8188 1.76043 22.8188 2.24043 22.5288 2.53043L15.0588 10.0004C14.9088 10.1504 14.7187 10.2204 14.5287 10.2204Z" fill="#103958"/>
</svg>
