<svg width="20" height="20" viewBox="0 0 20 20" fill="none" xmlns="http://www.w3.org/2000/svg">
<path d="M9.97506 18.9583C5.04172 18.9583 1.01672 14.9416 1.01672 9.99996C1.01672 5.05829 5.04172 1.04163 9.97506 1.04163C14.9084 1.04163 18.9334 5.05829 18.9334 9.99996C18.9334 14.9416 14.9167 18.9583 9.97506 18.9583ZM9.97506 2.29163C5.72506 2.29163 2.26672 5.74996 2.26672 9.99996C2.26672 14.25 5.72506 17.7083 9.97506 17.7083C14.2251 17.7083 17.6834 14.25 17.6834 9.99996C17.6834 5.74996 14.2251 2.29163 9.97506 2.29163Z" fill="#F9F9F9"/>
<path d="M8.79999 14.1583C8.43333 14.1583 8.08333 14.0667 7.77499 13.8917C7.05833 13.475 6.65833 12.6583 6.65833 11.5917V8.79999C6.65833 7.73333 7.04999 6.91666 7.76666 6.49999C8.48333 6.08333 9.39166 6.14999 10.3167 6.68333L12.7333 8.07499C13.6583 8.60833 14.1667 9.35833 14.1667 10.1917C14.1667 11.0167 13.6583 11.775 12.7333 12.3083L10.3167 13.7C9.79999 14.0083 9.27499 14.1583 8.79999 14.1583ZM8.79999 7.47499C8.64999 7.47499 8.50833 7.50833 8.39999 7.57499C8.08333 7.75833 7.90833 8.19999 7.90833 8.79999V11.5917C7.90833 12.1833 8.08333 12.6333 8.39999 12.8083C8.70833 12.9917 9.18333 12.9167 9.69999 12.625L12.1167 11.2333C12.6333 10.9333 12.925 10.5583 12.925 10.2C12.925 9.84166 12.625 9.46666 12.1167 9.16666L9.69999 7.77499C9.36666 7.57499 9.05833 7.47499 8.79999 7.47499Z" fill="#F9F9F9"/>
</svg>
